<?xml version="1.0" encoding="UTF-8" standalone="no"?>
<!-- Created with Inkscape (http://www.inkscape.org/) -->

<svg
   xmlns:dc="http://purl.org/dc/elements/1.1/"
   xmlns:cc="http://creativecommons.org/ns#"
   xmlns:rdf="http://www.w3.org/1999/02/22-rdf-syntax-ns#"
   xmlns:svg="http://www.w3.org/2000/svg"
   xmlns="http://www.w3.org/2000/svg"
   xmlns:sodipodi="http://sodipodi.sourceforge.net/DTD/sodipodi-0.dtd"
   xmlns:inkscape="http://www.inkscape.org/namespaces/inkscape"
   width="436.07364mm"
   height="130.18343mm"
   viewBox="0 0 436.07364 130.18343"
   version="1.1"
   id="svg8"
   inkscape:version="0.92.3 (2405546, 2018-03-11)"
   sodipodi:docname="logo-notext.svg"
   inkscape:export-filename="D:\cjden\Documents\website-deniosoftware\img\logo\logo-white.png"
   inkscape:export-xdpi="111.83432"
   inkscape:export-ydpi="111.83432">
  <defs
     id="defs2">
    <clipPath
       clipPathUnits="userSpaceOnUse"
       id="clipPath826">
      <path
         style="fill:none;stroke:#000000;stroke-width:0.26458332px;stroke-linecap:butt;stroke-linejoin:miter;stroke-opacity:1"
         d="m -368.90475,39.220235 45.3335,78.519955 56.71449,-80.461512 -57.60228,-75.448582 z"
         id="path828"
         inkscape:connector-curvature="0"
         sodipodi:nodetypes="ccccc" />
    </clipPath>
  </defs>
  <sodipodi:namedview
     id="base"
     pagecolor="#ffffff"
     bordercolor="#666666"
     borderopacity="1.0"
     inkscape:pageopacity="0.0"
     inkscape:pageshadow="2"
     inkscape:zoom="0.88548907"
     inkscape:cx="623.69022"
     inkscape:cy="168.57532"
     inkscape:document-units="mm"
     inkscape:current-layer="layer1"
     showgrid="false"
     inkscape:snap-object-midpoints="true"
     inkscape:snap-nodes="true"
     inkscape:object-paths="true"
     inkscape:snap-smooth-nodes="true"
     inkscape:window-width="1920"
     inkscape:window-height="1017"
     inkscape:window-x="-8"
     inkscape:window-y="-8"
     inkscape:window-maximized="1"
     fit-margin-top="0"
     fit-margin-left="0"
     fit-margin-right="0"
     fit-margin-bottom="0" />
  <metadata
     id="metadata5">
    <rdf:RDF>
      <cc:Work
         rdf:about="">
        <dc:format>image/svg+xml</dc:format>
        <dc:type
           rdf:resource="http://purl.org/dc/dcmitype/StillImage" />
        <dc:title></dc:title>
      </cc:Work>
    </rdf:RDF>
  </metadata>
  <g
     inkscape:label="Layer 1"
     inkscape:groupmode="layer"
     id="layer1"
     transform="translate(581.7874,-105.5947)">
    <g
       id="g824"
       transform="translate(0,-0.01764804)">
      <path
         inkscape:transform-center-y="2.7165782e-006"
         transform="matrix(0.63551025,0.36691201,-0.36691201,0.63551025,-273.99754,281.13478)"
         inkscape:transform-center-x="-4.0633704e-006"
         d="m -325.57576,114.26826 c -7.50481,4.3329 -79.15319,4.3329 -86.65799,0 -7.5048,-4.3329 -43.32899,-66.382228 -43.32899,-75.048026 0,-8.665799 35.82419,-70.71512 43.32899,-75.048019 7.50481,-4.332899 79.15319,-4.332895 86.65799,4e-6 7.50481,4.3329 43.329,66.382224 43.32899,75.048023 0,8.665799 -35.82419,70.715118 -43.32899,75.048018 z"
         inkscape:randomized="0"
         inkscape:rounded="0.1"
         inkscape:flatsided="true"
         sodipodi:arg2="1.5707963"
         sodipodi:arg1="1.0471976"
         sodipodi:r2="75.048027"
         sodipodi:r1="86.65799"
         sodipodi:cy="39.220238"
         sodipodi:cx="-368.90475"
         sodipodi:sides="6"
         id="path819"
         style="opacity:1;fill:none;fill-opacity:1;stroke:#ff9600;stroke-width:4.08817339;stroke-linecap:square;stroke-linejoin:round;stroke-miterlimit:4;stroke-dasharray:none;stroke-opacity:1;paint-order:normal"
         sodipodi:type="star" />
      <path
         sodipodi:type="star"
         style="opacity:1;fill:#ff9600;fill-opacity:1;stroke:#ff9600;stroke-width:2.11666656;stroke-linecap:square;stroke-linejoin:round;stroke-miterlimit:4;stroke-dasharray:none;stroke-opacity:1;paint-order:normal"
         id="path839"
         sodipodi:sides="6"
         sodipodi:cx="-368.90475"
         sodipodi:cy="39.220238"
         sodipodi:r1="86.65799"
         sodipodi:r2="75.048027"
         sodipodi:arg1="1.0471976"
         sodipodi:arg2="1.5707963"
         inkscape:flatsided="true"
         inkscape:rounded="0.1"
         inkscape:randomized="0"
         d="m -325.57576,114.26826 c -7.50481,4.3329 -79.15319,4.3329 -86.65799,0 -7.5048,-4.3329 -43.32899,-66.382228 -43.32899,-75.048026 0,-8.665799 35.82419,-70.71512 43.32899,-75.048019 7.50481,-4.332899 79.15319,-4.332895 86.65799,4e-6 7.50481,4.3329 43.329,66.382224 43.32899,75.048023 0,8.665799 -35.82419,70.715118 -43.32899,75.048018 z"
         inkscape:transform-center-x="-6.1475939e-006"
         transform="matrix(0.4912288,0.28361108,-0.28361108,0.4912288,-330.49073,256.06342)"
         inkscape:transform-center-y="1.7319622e-006" />
    </g>
    <g
       aria-label="DENIOSOFTWARE"
       style="font-style:normal;font-variant:normal;font-weight:normal;font-stretch:normal;font-size:10.58333302px;line-height:1.25;font-family:Raleway;-inkscape-font-specification:Raleway;letter-spacing:0px;word-spacing:0px;fill:#000000;fill-opacity:1;stroke:none;stroke-width:0.26458332"
       id="text843">
      <path
         d="m -444.59206,183.17474 v -25.04722 h 8.50195 q 2.99861,0 5.22111,0.98778 2.25778,0.98778 3.73944,2.68111 1.51695,1.69333 2.25778,3.98639 0.77611,2.25778 0.77611,4.83305 0,2.8575 -0.84667,5.18584 -0.84666,2.29305 -2.43416,3.95111 -1.55222,1.62278 -3.77473,2.54 -2.18722,0.88194 -4.93888,0.88194 z m 18.02695,-12.55889 q 0,-2.25777 -0.635,-4.1275 -0.635,-1.905 -1.86973,-3.28083 -1.19944,-1.37583 -2.96333,-2.11667 -1.76389,-0.77611 -4.05694,-0.77611 h -6.0325 v 20.67278 h 6.0325 q 2.32833,0 4.09222,-0.77611 1.79916,-0.81139 2.99861,-2.18722 1.19944,-1.41111 1.79917,-3.28084 0.635,-1.905 0.635,-4.1275 z"
         style="font-size:35.27777863px;fill:#000000;fill-opacity:1;stroke-width:0.26458332"
         id="path820" />
      <path
         d="m -402.54646,180.98752 v 2.18722 h -16.8275 v -25.04722 h 16.51 v 2.18722 h -14.04055 v 9.03111 h 12.24138 v 2.08139 h -12.24138 v 9.56028 z"
         style="font-size:35.27777863px;fill:#000000;fill-opacity:1;stroke-width:0.26458332"
         id="path822" />
      <path
         d="m -395.40712,162.71363 v 20.46111 h -2.46944 v -25.04722 h 1.905 l 16.58055,20.84917 V 158.1628 h 2.46945 v 25.01194 h -2.15195 z"
         style="font-size:35.27777863px;fill:#000000;fill-opacity:1;stroke-width:0.26458332"
         id="path824" />
      <path
         d="m -370.66031,183.17474 v -25.04722 h 2.46944 v 25.04722 z"
         style="font-size:35.27777863px;fill:#000000;fill-opacity:1;stroke-width:0.26458332"
         id="path826" />
      <path
         d="m -351.82032,183.35113 q -2.61055,0 -4.79778,-1.05833 -2.15194,-1.09361 -3.70416,-2.8575 -1.55222,-1.79917 -2.39889,-4.09222 -0.84667,-2.29306 -0.84667,-4.69195 0,-2.50472 0.88195,-4.79778 0.91722,-2.29305 2.50472,-4.05694 1.5875,-1.76389 3.73944,-2.78694 2.15195,-1.05834 4.65667,-1.05834 2.61056,0 4.7625,1.12889 2.18722,1.09361 3.70417,2.89278 1.55222,1.79917 2.39889,4.09222 0.84666,2.25778 0.84666,4.62139 0,2.50472 -0.91722,4.79778 -0.88194,2.29305 -2.46944,4.05694 -1.55223,1.72861 -3.70417,2.78695 -2.15194,1.02305 -4.65667,1.02305 z m -9.27805,-12.7 q 0,2.04611 0.67027,3.95111 0.67028,1.86973 1.905,3.35139 1.23473,1.44639 2.92806,2.32834 1.69333,0.84666 3.77472,0.84666 2.11667,0 3.84528,-0.91722 1.72861,-0.91722 2.92806,-2.39889 1.19944,-1.48167 1.83444,-3.35139 0.67028,-1.86972 0.67028,-3.81 0,-2.04611 -0.70556,-3.91583 -0.67027,-1.905 -1.905,-3.35139 -1.23472,-1.44639 -2.92805,-2.29306 -1.69334,-0.88194 -3.73945,-0.88194 -2.11666,0 -3.84528,0.91722 -1.72861,0.88195 -2.92805,2.36361 -1.19945,1.48167 -1.86972,3.35139 -0.635,1.86972 -0.635,3.81 z"
         style="font-size:35.27777863px;fill:#000000;fill-opacity:1;stroke-width:0.26458332"
         id="path829" />
      <path
         d="m -321.09503,165.4653 q -0.10584,-0.14111 -0.74084,-0.52917 -0.635,-0.38805 -1.5875,-0.81139 -0.9525,-0.42333 -2.08138,-0.74083 -1.12889,-0.3175 -2.25778,-0.3175 -3.10445,0 -3.10445,2.08139 0,0.635 0.3175,1.05833 0.35278,0.42334 0.98778,0.77611 0.67028,0.3175 1.65806,0.59973 0.98777,0.28222 2.29305,0.635 1.79917,0.49388 3.24556,1.09361 1.44639,0.56444 2.43416,1.44639 1.02306,0.84666 1.55223,2.08138 0.56444,1.23473 0.56444,2.96334 0,2.11666 -0.81139,3.59833 -0.77611,1.44639 -2.08139,2.36361 -1.30527,0.88195 -2.99861,1.30528 -1.69333,0.38806 -3.4925,0.38806 -1.37583,0 -2.82222,-0.21167 -1.44639,-0.21167 -2.82222,-0.59972 -1.37584,-0.42334 -2.68111,-0.98778 -1.27,-0.56445 -2.36361,-1.30528 l 2.54,-5.04472 q 0.14111,0.17639 0.91722,0.67028 0.77611,0.49389 1.905,0.98777 1.16416,0.49389 2.57528,0.88195 1.41111,0.38805 2.8575,0.38805 3.06916,0 3.06916,-1.86972 0,-0.70555 -0.45861,-1.16416 -0.45861,-0.45862 -1.27,-0.81139 -0.81139,-0.38806 -1.94028,-0.70556 -1.09361,-0.3175 -2.39889,-0.70555 -1.72861,-0.52917 -2.99861,-1.12889 -1.27,-0.635 -2.11666,-1.44639 -0.81139,-0.81139 -1.23473,-1.86972 -0.38805,-1.05834 -0.38805,-2.46945 0,-1.97555 0.74083,-3.4925 0.74084,-1.51694 2.01084,-2.54 1.27,-1.05833 2.92805,-1.5875 1.69333,-0.52917 3.56306,-0.52917 1.30527,0 2.57527,0.24695 1.27,0.24694 2.43417,0.635 1.16417,0.38805 2.15195,0.88194 1.02305,0.49389 1.86972,0.98778 z"
         style="font-style:normal;font-variant:normal;font-weight:800;font-stretch:normal;font-family:Raleway;-inkscape-font-specification:'Raleway Ultra-Bold';fill:#000000;fill-opacity:1"
         id="path831" />
      <path
         d="m -303.44787,183.38641 q -2.78694,0 -5.08,-1.09361 -2.29305,-1.09361 -3.91583,-2.8575 -1.62278,-1.79917 -2.54,-4.09222 -0.88195,-2.29306 -0.88195,-4.72723 0,-2.46944 0.91723,-4.7625 0.9525,-2.29305 2.61055,-4.02166 1.69334,-1.76389 3.98639,-2.78695 2.29306,-1.05833 5.00945,-1.05833 2.78694,0 5.08,1.09361 2.29305,1.09361 3.91583,2.89278 1.62278,1.79917 2.50472,4.09222 0.88195,2.29306 0.88195,4.65667 0,2.46944 -0.9525,4.7625 -0.91723,2.29305 -2.57528,4.05694 -1.65806,1.72861 -3.95111,2.78695 -2.29306,1.05833 -5.00945,1.05833 z m -6.52639,-12.7 q 0,1.44639 0.42334,2.82222 0.42333,1.34056 1.23472,2.39889 0.84667,1.05833 2.08139,1.69333 1.23472,0.635 2.82222,0.635 1.65806,0 2.89278,-0.67027 1.23472,-0.67028 2.04611,-1.72861 0.81139,-1.09362 1.19944,-2.43417 0.42334,-1.37583 0.42334,-2.78695 0,-1.44638 -0.42334,-2.78694 -0.42333,-1.37583 -1.27,-2.39889 -0.84666,-1.05833 -2.08139,-1.65805 -1.19944,-0.635 -2.78694,-0.635 -1.65806,0 -2.89278,0.67027 -1.19944,0.635 -2.04611,1.69334 -0.81139,1.05833 -1.23472,2.43416 -0.38806,1.34056 -0.38806,2.75167 z"
         style="font-style:normal;font-variant:normal;font-weight:800;font-stretch:normal;font-family:Raleway;-inkscape-font-specification:'Raleway Ultra-Bold';fill:#000000;fill-opacity:1"
         id="path833" />
      <path
         d="m -287.61642,183.17474 v -25.04722 h 17.00389 v 5.08 h -11.21833 v 5.3975 h 9.24278 v 4.69195 h -9.24278 v 9.87777 z"
         style="font-style:normal;font-variant:normal;font-weight:800;font-stretch:normal;font-family:Raleway;-inkscape-font-specification:'Raleway Ultra-Bold';fill:#000000;fill-opacity:1"
         id="path835" />
      <path
         d="m -248.48068,163.20752 h -7.62 v 19.96722 h -5.78555 v -19.96722 h -7.65528 v -5.08 h 21.06083 z"
         style="font-style:normal;font-variant:normal;font-weight:800;font-stretch:normal;font-family:Raleway;-inkscape-font-specification:'Raleway Ultra-Bold';fill:#000000;fill-opacity:1"
         id="path837" />
      <path
         d="m -237.3296,158.1628 h 5.32694 l 2.54,8.00805 2.54,-8.00805 h 5.36223 l -4.19806,11.64167 2.54,6.73805 6.27944,-18.415 h 6.31473 l -10.01889,25.04722 h -4.83306 l -3.98639,-9.80722 -3.95111,9.80722 h -4.86833 l -9.98361,-25.04722 h 6.27944 l 6.31472,18.415 2.46945,-6.73805 z"
         style="font-style:normal;font-variant:normal;font-weight:800;font-stretch:normal;font-family:Raleway;-inkscape-font-specification:'Raleway Ultra-Bold';fill:#000000;fill-opacity:1"
         id="path840" />
      <path
         d="m -203.77547,158.12752 h 5.22111 l 9.13694,25.04722 h -5.92666 l -1.94028,-5.60916 h -7.79639 l -1.905,5.60916 h -5.92667 z m 5.53861,15.45167 -2.92806,-8.85472 -2.99861,8.85472 z"
         style="font-style:normal;font-variant:normal;font-weight:800;font-stretch:normal;font-family:Raleway;-inkscape-font-specification:'Raleway Ultra-Bold';fill:#000000;fill-opacity:1"
         id="path842" />
      <path
         d="m -186.95072,183.17474 v -25.04722 h 11.28889 q 1.76389,0 3.24555,0.74083 1.51695,0.74084 2.61056,1.94028 1.09361,1.19945 1.69333,2.71639 0.635,1.51695 0.635,3.06917 0,1.16416 -0.28222,2.25778 -0.28222,1.05833 -0.81139,2.01083 -0.52916,0.9525 -1.30528,1.72861 -0.74083,0.74083 -1.69333,1.27 l 5.50333,9.31333 h -6.52638 l -4.79778,-8.07861 h -3.77472 v 8.07861 z m 5.78556,-13.12333 h 5.29166 q 1.02306,0 1.76389,-0.9525 0.74083,-0.98778 0.74083,-2.50472 0,-1.55222 -0.84666,-2.46945 -0.84667,-0.91722 -1.83445,-0.91722 h -5.11527 z"
         style="font-style:normal;font-variant:normal;font-weight:800;font-stretch:normal;font-family:Raleway;-inkscape-font-specification:'Raleway Ultra-Bold';fill:#000000;fill-opacity:1"
         id="path844" />
      <path
         d="m -145.71375,178.09474 v 5.08 h -17.60361 v -25.04722 h 17.28611 v 5.08 h -11.50055 v 4.86833 h 9.87778 v 4.69195 h -9.87778 v 5.32694 z"
         style="font-style:normal;font-variant:normal;font-weight:800;font-stretch:normal;font-family:Raleway;-inkscape-font-specification:'Raleway Ultra-Bold';fill:#000000;fill-opacity:1"
         id="path846" />
    </g>
  </g>
</svg>
